<svg xmlns="http://www.w3.org/2000/svg" id="Layer_2" data-name="Layer 2" viewBox="0 0 422.29 128.61"><defs><style>      .cls-1 {        fill: #fff;      }    </style></defs><g id="Front_Page" data-name="Front Page"><g><g><path class="cls-1" d="M115.43,40.9c-2.81-1.56-6.27-2.34-10.39-2.34-2.5,0-4.98.2-7.44.61-2.46.41-4.77.94-6.92,1.59-2.15.65-4.04,1.36-5.66,2.11l4.49,12.26c1.75-.75,3.68-1.39,5.8-1.92,2.12-.53,3.96-.8,5.52-.8,1.43,0,2.68.37,3.74,1.12,1.06.75,1.75,1.97,2.06,3.65l.09.47h-5.43c-5.24,0-9.51.98-12.82,2.95-3.31,1.96-4.96,5.41-4.96,10.34s1.4,8.45,4.21,11.32c2.81,2.87,7.08,4.3,12.82,4.3,1.93,0,3.76-.5,5.47-1.5,1.71-1,3.29-2.4,4.72-4.21l4.87,4.68h8.23v-28.07c0-3.87-.7-7.2-2.11-10.01-1.4-2.81-3.51-4.99-6.32-6.55ZM106.82,71.31c-1,.81-2,1.44-2.99,1.87-1,.44-2,.66-2.99.66-.56,0-1.08-.14-1.54-.42-.47-.28-.84-.66-1.12-1.12-.28-.47-.42-1.01-.42-1.64,0-1.06.36-1.93,1.08-2.62.72-.69,1.64-1.03,2.76-1.03h5.24v4.3Z"></path><path class="cls-1" d="M154.07,65.79l-9.26-27.32-15.72,4.49,16.28,41.73-.37,1.03c-.31.87-1.12,1.75-2.43,2.62-1.31.87-2.79,1.68-4.44,2.43-1.65.75-3.23,1.43-4.73,2.06l5.71,13.19c2.99-.69,5.89-1.75,8.7-3.18,2.81-1.44,5.27-3.18,7.39-5.24,2.12-2.06,3.65-4.3,4.58-6.74l19.93-50.71h-16.94l-8.7,25.64Z"></path><path class="cls-1" d="M221.62,41.09c-3.49-1.68-7.49-2.53-11.98-2.53-2.31,0-4.55.41-6.74,1.22-2.16.8-4.12,1.84-5.89,3.1l-2.63-2.63h-8.51v65.78l17.03-.94v-19.52c.14.05.28.1.42.15,1.84.56,3.7.84,5.57.84,4.8,0,9-.91,12.58-2.71,3.59-1.81,6.39-4.52,8.42-8.14,2.03-3.62,3.04-8.11,3.04-13.47s-1.01-9.89-3.04-13.38c-2.03-3.49-4.79-6.08-8.28-7.77ZM214.32,68.32c-.69,1.68-1.59,2.96-2.71,3.84-1.12.87-2.4,1.31-3.84,1.31-1.56,0-3.19-.42-4.87-1.27v-19.17c1.4-.91,2.77-1.37,4.12-1.37,1.81,0,3.32.41,4.54,1.22,1.22.81,2.15,2.01,2.81,3.6.65,1.59.98,3.54.98,5.85s-.34,4.3-1.03,5.99Z"></path><path class="cls-1" d="M275.7,41.32c-3.87-1.84-8.3-2.76-13.29-2.76s-9.06.95-12.96,2.85c-3.9,1.9-7,4.63-9.31,8.19-2.31,3.56-3.46,7.89-3.46,13.01,0,5.37,1.09,9.82,3.27,13.38,2.18,3.56,5.19,6.21,9.03,7.95,3.84,1.75,8.19,2.62,13.05,2.62s9.26-.91,13.19-2.71c3.93-1.81,7.06-4.46,9.4-7.95,2.34-3.49,3.51-7.77,3.51-12.82,0-5.43-1.11-9.95-3.32-13.57-2.21-3.62-5.26-6.35-9.12-8.19ZM269.57,68.41c-.65,1.44-1.59,2.51-2.81,3.23-1.22.72-2.73,1.08-4.54,1.08-1.68,0-3.12-.42-4.3-1.26-1.19-.84-2.09-2.03-2.71-3.56-.62-1.53-.94-3.29-.94-5.29,0-2.12.33-3.94.98-5.47.66-1.53,1.61-2.7,2.85-3.51,1.25-.81,2.74-1.22,4.49-1.22s3.2.47,4.35,1.4c1.15.94,2.04,2.2,2.67,3.79.62,1.59.94,3.42.94,5.47s-.33,3.9-.98,5.33Z"></path><rect class="cls-1" x="294.7" y="40.15" width="17.03" height="45.38"></rect><path class="cls-1" d="M303.12,15.45c-2.5,0-4.65.92-6.46,2.76-1.81,1.84-2.71,4.04-2.71,6.6s.9,4.65,2.71,6.46c1.81,1.81,3.96,2.71,6.46,2.71s4.76-.9,6.6-2.71c1.84-1.81,2.76-3.96,2.76-6.46s-.92-4.76-2.76-6.6c-1.84-1.84-4.04-2.76-6.6-2.76Z"></path><path class="cls-1" d="M362.11,40.95c-2.4-1.53-5.54-2.29-9.4-2.29-2.43,0-4.77.31-7.02.94-2.25.62-4.35,1.42-6.32,2.39-1.97.97-3.7,1.92-5.19,2.85l-2.99-4.68h-10.11v45.38h17.03v-30.5c.94-.44,1.98-.84,3.13-1.22,1.15-.37,2.28-.7,3.37-.98,1.09-.28,1.98-.42,2.67-.42,1.87,0,3.15.55,3.84,1.64.69,1.09,1.03,2.36,1.03,3.79v27.7h17.03v-29.29c0-3.37-.58-6.38-1.73-9.03-1.15-2.65-2.93-4.74-5.33-6.27Z"></path><path class="cls-1" d="M411.33,70.56c-1.12.48-2.14.8-3.06.97-1.6.28-2.97-.03-4.11-.94-1.14-.91-1.88-2.28-2.2-4.13l-1.95-11.06,13.27-2.34,9.01-8.38-12.9-4.52-11.7,2.06-2.53-14.37-16.36,5.26,2.13,12.07-6.91,1.22,2.32,13.18,6.91-1.22,2.27,12.9c.69,3.93,2.27,7.04,4.73,9.33,2.46,2.29,5.41,3.81,8.83,4.57,3.43.76,6.92.82,10.49.19,1.47-.26,2.99-.73,4.55-1.42,1.56-.69,2.97-1.46,4.25-2.32,1.27-.86,2.23-1.66,2.85-2.4l-6.81-10.58c-.94.8-1.96,1.44-3.08,1.92Z"></path><polygon class="cls-1" points="81.64 0 71.18 9.72 64.05 42.71 59.2 65.14 48.35 21.91 29.67 29.82 21.87 65.14 14.59 36.26 0 42.46 13.08 85.53 30.11 85.53 39.93 45.58 50.41 85.53 54.81 85.53 67.44 85.53 88.12 9.72 81.64 0"></polygon></g><g><path class="cls-1" d="M225.2,127.71c-1.85-.6-3.59-1.61-5.21-3.03-.89-.79-1.34-1.67-1.34-2.63,0-.76.28-1.43.84-2.01.56-.58,1.24-.87,2.04-.87.63,0,1.19.2,1.69.6,1.32,1.09,2.62,1.89,3.87,2.38,1.26.5,2.75.75,4.47.75,1.85,0,3.45-.41,4.79-1.24,1.34-.83,2.01-1.85,2.01-3.08,0-1.49-.66-2.66-1.99-3.5s-3.43-1.48-6.31-1.91c-7.25-1.06-10.88-4.44-10.88-10.13,0-2.09.55-3.9,1.64-5.44,1.09-1.54,2.58-2.71,4.47-3.53,1.89-.81,3.99-1.22,6.31-1.22,2.09,0,4.05.31,5.88.94,1.84.63,3.37,1.46,4.59,2.48.96.76,1.44,1.64,1.44,2.63,0,.76-.28,1.43-.84,2.01-.56.58-1.23.87-1.99.87-.5,0-.94-.15-1.34-.45-.86-.7-2.06-1.33-3.6-1.91-1.54-.58-2.92-.87-4.15-.87-2.09,0-3.7.39-4.84,1.17-1.14.78-1.71,1.8-1.71,3.05,0,1.42.59,2.5,1.76,3.23,1.17.73,3.02,1.32,5.54,1.79,2.85.5,5.12,1.13,6.83,1.91,1.7.78,2.99,1.84,3.85,3.18.86,1.34,1.29,3.12,1.29,5.34,0,2.09-.59,3.92-1.76,5.49-1.18,1.57-2.74,2.78-4.69,3.63-1.95.84-4.06,1.27-6.31,1.27-2.38,0-4.5-.3-6.36-.89Z"></path><path class="cls-1" d="M268.58,123.17c.38.45.57,1.04.57,1.76,0,.89-.49,1.65-1.46,2.26-.98.61-2.08.92-3.3.92-2.05,0-3.78-.44-5.19-1.32-1.41-.88-2.11-2.74-2.11-5.59v-13.71h-2.29c-.79,0-1.46-.26-1.99-.79-.53-.53-.79-1.19-.79-1.99s.26-1.4.79-1.91c.53-.51,1.19-.77,1.99-.77h2.29v-3.18c0-.86.29-1.58.87-2.16.58-.58,1.3-.87,2.16-.87s1.52.29,2.09.87c.56.58.84,1.3.84,2.16v3.18h3.53c.79,0,1.46.27,1.99.79.53.53.79,1.19.79,1.99s-.26,1.4-.79,1.91c-.53.51-1.19.77-1.99.77h-3.53v13.46c0,.7.18,1.2.55,1.51.36.32.86.47,1.49.47.26,0,.63-.07,1.09-.2.4-.17.78-.25,1.14-.25.46,0,.89.22,1.27.67Z"></path><path class="cls-1" d="M301.63,102.41c.56.58.84,1.3.84,2.16v12.62c0,3.58-.99,6.37-2.96,8.39s-4.78,3.03-8.42,3.03-6.44-1.01-8.39-3.03c-1.95-2.02-2.93-4.82-2.93-8.39v-12.62c0-.86.28-1.58.84-2.16.56-.58,1.27-.87,2.14-.87s1.57.29,2.14.87c.56.58.84,1.3.84,2.16v12.62c0,2.02.45,3.52,1.34,4.49.89.98,2.24,1.47,4.02,1.47s3.18-.49,4.07-1.47c.89-.98,1.34-2.47,1.34-4.49v-12.62c0-.86.28-1.58.84-2.16.56-.58,1.27-.87,2.14-.87s1.57.29,2.14.87Z"></path><path class="cls-1" d="M337.54,92.2c.56.56.84,1.29.84,2.19v30.69c0,.86-.28,1.58-.84,2.16-.56.58-1.28.87-2.14.87s-1.56-.28-2.11-.84c-.55-.56-.84-1.27-.87-2.14-.83.96-1.95,1.78-3.35,2.46-1.41.68-2.89,1.02-4.45,1.02-2.28,0-4.35-.59-6.21-1.76-1.85-1.17-3.32-2.81-4.4-4.89-1.08-2.09-1.61-4.45-1.61-7.1s.53-5.02,1.59-7.13c1.06-2.1,2.51-3.74,4.35-4.92,1.84-1.17,3.87-1.76,6.08-1.76,1.59,0,3.08.29,4.47.87,1.39.58,2.57,1.32,3.53,2.21v-9.73c0-.86.28-1.58.84-2.16.56-.58,1.27-.87,2.14-.87s1.57.28,2.14.84ZM330.64,120.79c1.36-1.57,2.04-3.55,2.04-5.94s-.68-4.37-2.04-5.96c-1.36-1.59-3.11-2.38-5.26-2.38s-3.86.79-5.21,2.38c-1.36,1.59-2.04,3.58-2.04,5.96s.67,4.36,2.01,5.94c1.34,1.57,3.09,2.36,5.24,2.36s3.91-.79,5.26-2.36Z"></path><path class="cls-1" d="M350.01,97.77c-.46-.36-.7-1.01-.7-1.94v-.94c0-.93.25-1.57.75-1.94.5-.36,1.29-.55,2.38-.55,1.16,0,1.97.18,2.43.55.46.36.7,1.01.7,1.94v.94c0,.96-.24,1.61-.72,1.96-.48.35-1.3.52-2.46.52s-1.92-.18-2.38-.55ZM354.58,127.24c-.56.58-1.27.87-2.14.87s-1.57-.29-2.13-.87c-.56-.58-.84-1.3-.84-2.16v-20.51c0-.86.28-1.58.84-2.16.56-.58,1.27-.87,2.13-.87s1.57.29,2.14.87c.56.58.84,1.3.84,2.16v20.51c0,.86-.28,1.58-.84,2.16Z"></path><path class="cls-1" d="M390.24,121.98c-1.19,2.1-2.82,3.73-4.89,4.89-2.07,1.16-4.35,1.74-6.83,1.74s-4.8-.58-6.85-1.74c-2.05-1.16-3.68-2.79-4.87-4.89-1.19-2.1-1.79-4.48-1.79-7.13s.6-5.02,1.79-7.13c1.19-2.1,2.81-3.74,4.87-4.92,2.05-1.17,4.34-1.76,6.85-1.76s4.76.59,6.83,1.76c2.07,1.18,3.7,2.81,4.89,4.92,1.19,2.1,1.79,4.48,1.79,7.13s-.6,5.02-1.79,7.13ZM385.05,110.51c-.68-1.27-1.59-2.26-2.73-2.96-1.14-.7-2.41-1.04-3.8-1.04s-2.66.35-3.8,1.04c-1.14.7-2.05,1.68-2.73,2.96-.68,1.27-1.02,2.72-1.02,4.35s.34,3.06,1.02,4.32c.68,1.26,1.59,2.24,2.73,2.93,1.14.7,2.41,1.04,3.8,1.04s2.66-.35,3.8-1.04c1.14-.7,2.05-1.67,2.73-2.93.68-1.26,1.02-2.7,1.02-4.32s-.34-3.07-1.02-4.35Z"></path><path class="cls-1" d="M399.97,122.5c0-.86.43-1.59,1.29-2.19.46-.3.94-.45,1.44-.45.7,0,1.36.32,1.99.94.99,1.03,2.03,1.79,3.1,2.28s2.38.75,3.9.75c2.58-.1,3.87-1.08,3.87-2.93,0-.96-.44-1.69-1.32-2.19-.88-.5-2.24-.99-4.1-1.49-1.92-.53-3.49-1.06-4.69-1.59-1.21-.53-2.25-1.33-3.13-2.41-.88-1.08-1.32-2.52-1.32-4.35,0-1.59.46-2.97,1.37-4.15.91-1.17,2.1-2.09,3.58-2.73s3.04-.97,4.69-.97,3.38.31,5.07.94c1.69.63,3.01,1.56,3.97,2.78.43.53.65,1.13.65,1.79,0,.76-.32,1.39-.94,1.89-.46.36-.99.55-1.59.55-.73,0-1.33-.23-1.79-.7-.6-.73-1.37-1.31-2.31-1.74-.94-.43-2.01-.65-3.2-.65-2.52,0-3.77.91-3.77,2.73,0,.73.23,1.32.7,1.76.46.45,1.05.79,1.76,1.04.71.25,1.71.55,3,.92,1.79.5,3.28,1.01,4.47,1.54,1.19.53,2.2,1.34,3.03,2.43.83,1.09,1.24,2.53,1.24,4.32,0,1.62-.48,3.04-1.44,4.25-.96,1.21-2.19,2.13-3.7,2.76-1.51.63-3.05.94-4.64.94-2.19,0-4.22-.36-6.11-1.09-1.89-.73-3.43-1.9-4.62-3.53-.3-.4-.45-.89-.45-1.49Z"></path></g></g></g></svg>