<svg xmlns="http://www.w3.org/2000/svg" height="38.61" viewBox="0 0 1422 128.61">
    <g id="Group_1" data-name="Group 1" transform="translate(-991 229)">
        <path id="Path_1" data-name="Path 1"
            d="M115.43,40.9a21.144,21.144,0,0,0-10.39-2.34,45.174,45.174,0,0,0-7.44.61,55.421,55.421,0,0,0-6.92,1.59,43.528,43.528,0,0,0-5.66,2.11l4.49,12.26a38.283,38.283,0,0,1,5.8-1.92,23.263,23.263,0,0,1,5.52-.8,6.312,6.312,0,0,1,3.74,1.12,5.452,5.452,0,0,1,2.06,3.65l.09.47h-5.43q-7.86,0-12.82,2.95T83.51,70.94c0,4.93,1.4,8.45,4.21,11.32s7.08,4.3,12.82,4.3a10.678,10.678,0,0,0,5.47-1.5,16.983,16.983,0,0,0,4.72-4.21l4.87,4.68h8.23V57.46a22.062,22.062,0,0,0-2.11-10.01,15.021,15.021,0,0,0-6.32-6.55Zm-8.61,30.41a13.117,13.117,0,0,1-2.99,1.87,7.386,7.386,0,0,1-2.99.66,2.92,2.92,0,0,1-1.54-.42,3.245,3.245,0,0,1-1.12-1.12,3.126,3.126,0,0,1-.42-1.64,3.469,3.469,0,0,1,1.08-2.62,3.823,3.823,0,0,1,2.76-1.03h5.24v4.3Z"
            transform="translate(991 -229)" fill="#341565"></path>
        <path id="Path_2" data-name="Path 2"
            d="M154.07,65.79l-9.26-27.32-15.72,4.49,16.28,41.73L145,85.72a5.83,5.83,0,0,1-2.43,2.62,31.814,31.814,0,0,1-4.44,2.43c-1.65.75-3.23,1.43-4.73,2.06l5.71,13.19a37.931,37.931,0,0,0,8.7-3.18,30.394,30.394,0,0,0,7.39-5.24,18.684,18.684,0,0,0,4.58-6.74l19.93-50.71H162.77l-8.7,25.64Z"
            transform="translate(991 -229)" fill="#341565"></path>
        <path id="Path_3" data-name="Path 3"
            d="M221.62,41.09a27.315,27.315,0,0,0-11.98-2.53,19.262,19.262,0,0,0-6.74,1.22,25.19,25.19,0,0,0-5.89,3.1l-2.63-2.63h-8.51v65.78l17.03-.94V85.57l.42.15a19.051,19.051,0,0,0,5.57.84,27.692,27.692,0,0,0,12.58-2.71,19.61,19.61,0,0,0,8.42-8.14q3.045-5.43,3.04-13.47c0-5.36-1.01-9.89-3.04-13.38a19.023,19.023,0,0,0-8.28-7.77Zm-7.3,27.23a9.177,9.177,0,0,1-2.71,3.84,6.1,6.1,0,0,1-3.84,1.31,10.781,10.781,0,0,1-4.87-1.27V53.03a7.548,7.548,0,0,1,4.12-1.37,8.026,8.026,0,0,1,4.54,1.22,7.7,7.7,0,0,1,2.81,3.6,15.485,15.485,0,0,1,.98,5.85,15.774,15.774,0,0,1-1.03,5.99Z"
            transform="translate(991 -229)" fill="#341565"></path>
        <path id="Path_4" data-name="Path 4"
            d="M275.7,41.32a30.6,30.6,0,0,0-13.29-2.76,28.441,28.441,0,0,0-12.96,2.85,22.746,22.746,0,0,0-9.31,8.19,23.377,23.377,0,0,0-3.46,13.01c0,5.37,1.09,9.82,3.27,13.38a20.051,20.051,0,0,0,9.03,7.95,33.63,33.63,0,0,0,26.24-.09,21.607,21.607,0,0,0,12.91-20.77q0-8.145-3.32-13.57a21.092,21.092,0,0,0-9.12-8.19Zm-6.13,27.09a6.932,6.932,0,0,1-2.81,3.23,8.794,8.794,0,0,1-4.54,1.08,7.236,7.236,0,0,1-4.3-1.26,7.811,7.811,0,0,1-2.71-3.56,15.556,15.556,0,0,1,.04-10.76,7.7,7.7,0,0,1,2.85-3.51,8.063,8.063,0,0,1,4.49-1.22,6.7,6.7,0,0,1,4.35,1.4,9.1,9.1,0,0,1,2.67,3.79,15,15,0,0,1,.94,5.47,13.11,13.11,0,0,1-.98,5.33Z"
            transform="translate(991 -229)" fill="#341565"></path>
        <rect id="Rectangle_1" data-name="Rectangle 1" width="17.03" height="45.38"
            transform="translate(1285.7 -188.85)" fill="#341565"></rect>
        <path id="Path_5" data-name="Path 5"
            d="M303.12,15.45a8.747,8.747,0,0,0-6.46,2.76,9.076,9.076,0,0,0-2.71,6.6,8.717,8.717,0,0,0,2.71,6.46,8.812,8.812,0,0,0,6.46,2.71,9.175,9.175,0,0,0,6.6-2.71,8.747,8.747,0,0,0,2.76-6.46,9.1,9.1,0,0,0-2.76-6.6,9.006,9.006,0,0,0-6.6-2.76Z"
            transform="translate(991 -229)" fill="#341565"></path>
        <path id="Path_6" data-name="Path 6"
            d="M362.11,40.95a17.264,17.264,0,0,0-9.4-2.29,25.911,25.911,0,0,0-7.02.94,35.76,35.76,0,0,0-6.32,2.39q-2.955,1.455-5.19,2.85l-2.99-4.68H321.08V85.54h17.03V55.04a28.445,28.445,0,0,1,3.13-1.22c1.15-.37,2.28-.7,3.37-.98a11.229,11.229,0,0,1,2.67-.42c1.87,0,3.15.55,3.84,1.64a6.946,6.946,0,0,1,1.03,3.79v27.7h17.03V56.26a22.478,22.478,0,0,0-1.73-9.03,13.769,13.769,0,0,0-5.33-6.27Z"
            transform="translate(991 -229)" fill="#341565"></path>
        <path id="Path_7" data-name="Path 7"
            d="M411.33,70.56a14.592,14.592,0,0,1-3.06.97,4.925,4.925,0,0,1-4.11-.94,6.451,6.451,0,0,1-2.2-4.13L400.01,55.4l13.27-2.34,9.01-8.38-12.9-4.52-11.7,2.06-2.53-14.37L378.8,33.11l2.13,12.07-6.91,1.22,2.32,13.18,6.91-1.22,2.27,12.9a16.121,16.121,0,0,0,4.73,9.33,18.641,18.641,0,0,0,8.83,4.57,26.613,26.613,0,0,0,10.49.19,19.789,19.789,0,0,0,4.55-1.42,27.614,27.614,0,0,0,4.25-2.32,14.03,14.03,0,0,0,2.85-2.4l-6.81-10.58a12.04,12.04,0,0,1-3.08,1.92Z"
            transform="translate(991 -229)" fill="#341565"></path>
        <path id="Path_8" data-name="Path 8"
            d="M81.64,0,71.18,9.72,64.05,42.71,59.2,65.14,48.35,21.91,29.67,29.82l-7.8,35.32L14.59,36.26,0,42.46,13.08,85.53H30.11l9.82-39.95L50.41,85.53H67.44L88.12,9.72Z"
            transform="translate(991 -229)" fill="#341565"></path>
        <path id="Path_9" data-name="Path 9"
            d="M225.2,127.71a14.831,14.831,0,0,1-5.21-3.03,3.488,3.488,0,0,1-1.34-2.63,2.808,2.808,0,0,1,.84-2.01,2.73,2.73,0,0,1,2.04-.87,2.629,2.629,0,0,1,1.69.6,14.537,14.537,0,0,0,3.87,2.38,12.092,12.092,0,0,0,4.47.75,8.921,8.921,0,0,0,4.79-1.24,3.6,3.6,0,0,0,2.01-3.08,3.933,3.933,0,0,0-1.99-3.5,16.968,16.968,0,0,0-6.31-1.91q-10.875-1.59-10.88-10.13a9.169,9.169,0,0,1,1.64-5.44,10.387,10.387,0,0,1,4.47-3.53,15.85,15.85,0,0,1,6.31-1.22,17.941,17.941,0,0,1,5.88.94,14.306,14.306,0,0,1,4.59,2.48,3.313,3.313,0,0,1,1.44,2.63,2.808,2.808,0,0,1-.84,2.01,2.685,2.685,0,0,1-1.99.87,2.165,2.165,0,0,1-1.34-.45,12.985,12.985,0,0,0-3.6-1.91,11.919,11.919,0,0,0-4.15-.87,8.506,8.506,0,0,0-4.84,1.17,3.708,3.708,0,0,0,.05,6.28,16.775,16.775,0,0,0,5.54,1.79,28.843,28.843,0,0,1,6.83,1.91,8.763,8.763,0,0,1,3.85,3.18,9.771,9.771,0,0,1,1.29,5.34,8.94,8.94,0,0,1-1.76,5.49,11.456,11.456,0,0,1-4.69,3.63,15.807,15.807,0,0,1-6.31,1.27,21.014,21.014,0,0,1-6.36-.89Z"
            transform="translate(991 -229)" fill="#341565"></path>
        <path id="Path_10" data-name="Path 10"
            d="M268.58,123.17a2.656,2.656,0,0,1-.89,4.02,6.121,6.121,0,0,1-3.3.92,9.62,9.62,0,0,1-5.19-1.32q-2.115-1.32-2.11-5.59V107.49H254.8a2.7,2.7,0,0,1-2.78-2.78,2.482,2.482,0,0,1,.79-1.91,2.754,2.754,0,0,1,1.99-.77h2.29V98.85a2.972,2.972,0,0,1,3.03-3.03,2.762,2.762,0,0,1,2.09.87,2.988,2.988,0,0,1,.84,2.16v3.18h3.53a2.746,2.746,0,0,1,1.99.79,2.69,2.69,0,0,1,.79,1.99,2.482,2.482,0,0,1-.79,1.91,2.754,2.754,0,0,1-1.99.77h-3.53v13.46a1.859,1.859,0,0,0,.55,1.51,2.166,2.166,0,0,0,1.49.47,4.38,4.38,0,0,0,1.09-.2,2.906,2.906,0,0,1,1.14-.25,1.653,1.653,0,0,1,1.27.67Z"
            transform="translate(991 -229)" fill="#341565"></path>
        <path id="Path_11" data-name="Path 11"
            d="M301.63,102.41a2.988,2.988,0,0,1,.84,2.16v12.62c0,3.58-.99,6.37-2.96,8.39s-4.78,3.03-8.42,3.03-6.44-1.01-8.39-3.03-2.93-4.82-2.93-8.39V104.57a2.988,2.988,0,0,1,.84-2.16,3.067,3.067,0,0,1,4.28,0,2.988,2.988,0,0,1,.84,2.16v12.62a6.477,6.477,0,0,0,1.34,4.49,5.176,5.176,0,0,0,4.02,1.47,5.293,5.293,0,0,0,4.07-1.47,6.494,6.494,0,0,0,1.34-4.49V104.57a2.988,2.988,0,0,1,.84-2.16,3.067,3.067,0,0,1,4.28,0Z"
            transform="translate(991 -229)" fill="#341565"></path>
        <path id="Path_12" data-name="Path 12"
            d="M337.54,92.2a2.962,2.962,0,0,1,.84,2.19v30.69a2.988,2.988,0,0,1-.84,2.16,2.856,2.856,0,0,1-2.14.87,2.825,2.825,0,0,1-2.11-.84,3.082,3.082,0,0,1-.87-2.14,10.3,10.3,0,0,1-3.35,2.46,10.108,10.108,0,0,1-4.45,1.02,11.429,11.429,0,0,1-6.21-1.76,12.43,12.43,0,0,1-4.4-4.89,15.215,15.215,0,0,1-1.61-7.1,15.642,15.642,0,0,1,1.59-7.13,12.262,12.262,0,0,1,4.35-4.92,11.116,11.116,0,0,1,6.08-1.76,11.49,11.49,0,0,1,4.47.87,11.854,11.854,0,0,1,3.53,2.21V94.4a2.988,2.988,0,0,1,.84-2.16,2.841,2.841,0,0,1,2.14-.87,2.909,2.909,0,0,1,2.14.84Zm-6.9,28.59a8.747,8.747,0,0,0,2.04-5.94,8.836,8.836,0,0,0-2.04-5.96,6.594,6.594,0,0,0-5.26-2.38,6.482,6.482,0,0,0-5.21,2.38,9.754,9.754,0,0,0-.03,11.9,7.019,7.019,0,0,0,10.5,0Z"
            transform="translate(991 -229)" fill="#341565"></path>
        <path id="Path_13" data-name="Path 13"
            d="M350.01,97.77a2.343,2.343,0,0,1-.7-1.94v-.94a2.254,2.254,0,0,1,.75-1.94,4.113,4.113,0,0,1,2.38-.55,3.986,3.986,0,0,1,2.43.55,2.343,2.343,0,0,1,.7,1.94v.94a2.281,2.281,0,0,1-.72,1.96,4.322,4.322,0,0,1-2.46.52,3.813,3.813,0,0,1-2.38-.55Zm4.57,29.47a3.055,3.055,0,0,1-4.27,0,2.988,2.988,0,0,1-.84-2.16V104.57a2.988,2.988,0,0,1,.84-2.16,2.834,2.834,0,0,1,2.13-.87,2.872,2.872,0,0,1,2.14.87,2.988,2.988,0,0,1,.84,2.16v20.51A2.988,2.988,0,0,1,354.58,127.24Z"
            transform="translate(991 -229)" fill="#341565"></path>
        <path id="Path_14" data-name="Path 14"
            d="M390.24,121.98a12.628,12.628,0,0,1-4.89,4.89,14.314,14.314,0,0,1-13.68,0,12.713,12.713,0,0,1-4.87-4.89,15.1,15.1,0,0,1,0-14.26,12.86,12.86,0,0,1,4.87-4.92,14.171,14.171,0,0,1,13.68,0,12.773,12.773,0,0,1,4.89,4.92,15.1,15.1,0,0,1,0,14.26Zm-5.19-11.47a7.592,7.592,0,0,0-2.73-2.96,7.119,7.119,0,0,0-3.8-1.04,7.209,7.209,0,0,0-3.8,1.04,7.524,7.524,0,0,0-2.73,2.96,9.072,9.072,0,0,0-1.02,4.35,8.924,8.924,0,0,0,1.02,4.32,7.506,7.506,0,0,0,2.73,2.93,7.119,7.119,0,0,0,3.8,1.04,7.209,7.209,0,0,0,3.8-1.04,7.575,7.575,0,0,0,2.73-2.93,8.952,8.952,0,0,0,1.02-4.32A9.128,9.128,0,0,0,385.05,110.51Z"
            transform="translate(991 -229)" fill="#341565"></path>
        <path id="Path_15" data-name="Path 15"
            d="M399.97,122.5a2.83,2.83,0,0,1,2.73-2.64,2.833,2.833,0,0,1,1.99.94,10.3,10.3,0,0,0,3.1,2.28,9.353,9.353,0,0,0,3.9.75q3.87-.15,3.87-2.93a2.384,2.384,0,0,0-1.32-2.19,18.541,18.541,0,0,0-4.1-1.49,35.03,35.03,0,0,1-4.69-1.59,8.282,8.282,0,0,1-3.13-2.41,7.382,7.382,0,0,1,.05-8.5,8.948,8.948,0,0,1,3.58-2.73,11.687,11.687,0,0,1,4.69-.97,14.586,14.586,0,0,1,5.07.94,8.836,8.836,0,0,1,3.97,2.78,2.779,2.779,0,0,1,.65,1.79,2.339,2.339,0,0,1-.94,1.89,2.517,2.517,0,0,1-1.59.55,2.4,2.4,0,0,1-1.79-.7,6.356,6.356,0,0,0-2.31-1.74,7.622,7.622,0,0,0-3.2-.65c-2.52,0-3.77.91-3.77,2.73a2.3,2.3,0,0,0,.7,1.76,4.7,4.7,0,0,0,1.76,1.04c.71.25,1.71.55,3,.92a33.074,33.074,0,0,1,4.47,1.54,7.718,7.718,0,0,1,3.03,2.43,6.946,6.946,0,0,1,1.24,4.32,6.643,6.643,0,0,1-1.44,4.25,9.1,9.1,0,0,1-3.7,2.76,11.914,11.914,0,0,1-4.64.94,16.784,16.784,0,0,1-6.11-1.09,10.1,10.1,0,0,1-4.62-3.53,2.4,2.4,0,0,1-.45-1.49Z"
            transform="translate(991 -229)" fill="#341565"></path>
    </g>
</svg>